<mxfile host="app.diagrams.net" agent="Mozilla/5.0 (Macintosh; Intel Mac OS X 10_15_7) AppleWebKit/537.36 (KHTML, like Gecko) Chrome/128.0.0.0 Safari/537.36" version="24.7.16">
  <diagram name="第 1 页" id="o-6aTLwozZE8DVFc02E1">
    <mxGraphModel dx="954" dy="605" grid="1" gridSize="10" guides="1" tooltips="1" connect="1" arrows="1" fold="1" page="1" pageScale="1" pageWidth="827" pageHeight="1169" math="0" shadow="0">
      <root>
        <mxCell id="0" />
        <mxCell id="1" parent="0" />
        <mxCell id="YN7DKfKv9T_xGkcUoefO-2" value="" style="shape=table;startSize=0;container=1;collapsible=0;childLayout=tableLayout;" vertex="1" parent="1">
          <mxGeometry x="120" y="80" width="440" height="290" as="geometry" />
        </mxCell>
        <mxCell id="YN7DKfKv9T_xGkcUoefO-3" value="" style="shape=tableRow;horizontal=0;startSize=0;swimlaneHead=0;swimlaneBody=0;strokeColor=inherit;top=0;left=0;bottom=0;right=0;collapsible=0;dropTarget=0;fillColor=none;points=[[0,0.5],[1,0.5]];portConstraint=eastwest;" vertex="1" parent="YN7DKfKv9T_xGkcUoefO-2">
          <mxGeometry width="440" height="290" as="geometry" />
        </mxCell>
        <mxCell id="YN7DKfKv9T_xGkcUoefO-4" value="&lt;table&gt;&lt;tbody&gt;&lt;tr&gt;&lt;td&gt;&lt;br&gt;&lt;/td&gt;&lt;td&gt;&lt;br&gt;&lt;/td&gt;&lt;/tr&gt;&lt;/tbody&gt;&lt;/table&gt;" style="shape=partialRectangle;html=1;whiteSpace=wrap;connectable=0;strokeColor=inherit;overflow=hidden;fillColor=none;top=0;left=0;bottom=0;right=0;pointerEvents=1;" vertex="1" parent="YN7DKfKv9T_xGkcUoefO-3">
          <mxGeometry width="220" height="290" as="geometry">
            <mxRectangle width="220" height="290" as="alternateBounds" />
          </mxGeometry>
        </mxCell>
        <mxCell id="YN7DKfKv9T_xGkcUoefO-5" value="" style="shape=partialRectangle;html=1;whiteSpace=wrap;connectable=0;strokeColor=inherit;overflow=hidden;fillColor=none;top=0;left=0;bottom=0;right=0;pointerEvents=1;" vertex="1" parent="YN7DKfKv9T_xGkcUoefO-3">
          <mxGeometry x="220" width="220" height="290" as="geometry">
            <mxRectangle width="220" height="290" as="alternateBounds" />
          </mxGeometry>
        </mxCell>
        <mxCell id="YN7DKfKv9T_xGkcUoefO-11" value="" style="rounded=0;whiteSpace=wrap;html=1;" vertex="1" parent="1">
          <mxGeometry x="140" y="100" width="90" height="250" as="geometry" />
        </mxCell>
        <mxCell id="YN7DKfKv9T_xGkcUoefO-12" value="" style="rounded=0;whiteSpace=wrap;html=1;" vertex="1" parent="1">
          <mxGeometry x="240" y="100" width="90" height="250" as="geometry" />
        </mxCell>
        <mxCell id="YN7DKfKv9T_xGkcUoefO-13" value="新生区" style="text;html=1;align=center;verticalAlign=middle;resizable=0;points=[];autosize=1;strokeColor=none;fillColor=none;" vertex="1" parent="1">
          <mxGeometry x="205" y="30" width="60" height="30" as="geometry" />
        </mxCell>
        <mxCell id="YN7DKfKv9T_xGkcUoefO-14" value="老生区" style="text;html=1;align=center;verticalAlign=middle;resizable=0;points=[];autosize=1;strokeColor=none;fillColor=none;" vertex="1" parent="1">
          <mxGeometry x="420" y="28" width="60" height="30" as="geometry" />
        </mxCell>
      </root>
    </mxGraphModel>
  </diagram>
</mxfile>
